<?xml version="1.0" encoding="UTF-8"?>
<svg width="56px" height="56px" viewBox="0 0 56 56" version="1.1" xmlns="http://www.w3.org/2000/svg" xmlns:xlink="http://www.w3.org/1999/xlink">
    <!-- Generator: Sketch 51.3 (57544) - http://www.bohemiancoding.com/sketch -->
    <title>003 - D&amp;D Dragon </title>
    <desc>Created with Sketch.</desc>
    <defs></defs>
    <g id="Page-1" stroke="none" stroke-width="1" fill="none" fill-rule="evenodd">
        <g id="003---D&amp;D-Dragon-" transform="translate(-1.000000, 0.000000)" fill="#000000" fill-rule="nonzero">
            <path d="M15.659,14.44 C17.9879274,14.4838546 20.2921787,14.9259001 22.472,15.747 C24.55956,16.5376444 26.7680621,16.9615496 29,17 C29.39,17 29.774,16.993 30.151,16.981 C30.314,16.976 30.471,16.966 30.632,16.958 C30.842,16.949 31.054,16.941 31.259,16.928 C31.464,16.915 31.653,16.898 31.849,16.883 C32.005,16.871 32.165,16.86 32.319,16.846 C32.534,16.826 32.742,16.803 32.951,16.78 C33.078,16.766 33.207,16.754 33.331,16.739 C33.558,16.712 33.777,16.682 33.996,16.651 C34.096,16.638 34.196,16.626 34.287,16.612 C34.522,16.578 34.749,16.541 34.974,16.504 L35.189,16.469 C35.43,16.428 35.661,16.385 35.889,16.342 L36.029,16.316 C36.266,16.27 36.494,16.223 36.716,16.175 L36.816,16.155 C37.044,16.105 37.263,16.055 37.473,16.005 L37.535,15.991 C37.753,15.939 37.961,15.886 38.158,15.835 L38.185,15.828 C38.385,15.775 38.585,15.723 38.762,15.673 C39.124,15.573 39.437,15.473 39.699,15.393 L39.718,15.387 C39.834,15.35 39.937,15.316 40.032,15.287 L40.089,15.268 L40.278,15.203 L40.378,15.167 L40.424,15.15 L40.524,15.113 C41.5412783,14.4766939 42.8080388,14.386773 43.905,14.873 C44.0886873,14.9421446 44.2686034,15.0209205 44.444,15.109 C44.944,15.361 45.591,15.091 46.778,14.551 C48.7042798,13.5601384 50.8340118,13.0292457 53,13 C53.1876914,12.996461 53.374866,12.9790805 53.56,12.948 L53.571,12.948 C54.9556878,12.6512283 56.0574866,11.6038822 56.424,10.236 C54.7389775,11.3890489 52.5999157,11.6547547 50.684,10.949 C49.706,10.623 48.935,10.297 48.254,10.011 C47.1289764,9.4518569 45.9066358,9.11503415 44.654,9.019 C44.45,9.00633333 44.232,9 44,9 C42.7104717,8.97112424 41.4505078,9.3882864 40.433,10.181 L40.113,10.39 L39.993,10.465 C39.912,10.517 39.829,10.565 39.744,10.618 L39.615,10.694 C39.493,10.764 39.369,10.833 39.24,10.894 L39.177,10.923 C39.065,10.978 38.949,11.031 38.829,11.081 C38.781,11.101 38.729,11.12 38.681,11.139 C38.581,11.179 38.47,11.217 38.359,11.252 C38.309,11.268 38.259,11.285 38.207,11.3 C38.049,11.346 37.886,11.388 37.712,11.422 C37.676,11.429 37.635,11.434 37.598,11.44 C37.454,11.466 37.305,11.488 37.149,11.504 C37.083,11.512 37.015,11.517 36.949,11.522 C36.802,11.534 36.649,11.54 36.491,11.543 C36.444,11.543 36.403,11.549 36.356,11.549 L36.296,11.549 C36.08,11.549 35.855,11.539 35.617,11.519 C35.568,11.519 35.517,11.508 35.465,11.503 C35.265,11.484 35.065,11.46 34.847,11.428 C34.758,11.415 34.665,11.399 34.573,11.383 C34.377,11.349 34.174,11.3096667 33.964,11.265 C33.871,11.245 33.78,11.227 33.684,11.205 C33.384,11.134 33.064,11.055 32.728,10.959 C32.364,10.859 31.97,10.754 31.562,10.659 C31.462,10.634 31.346,10.61 31.238,10.585 C30.8953333,10.507 30.539,10.4336667 30.169,10.365 C30.069,10.347 29.979,10.328 29.881,10.311 C26.1985237,9.64878699 22.4170323,9.78141707 18.79,10.7 C18.776,10.7 18.762,10.7 18.748,10.7 C15.521387,11.5435149 12.4885891,13.0037132 9.817,15 L10.891,15 C12.4555034,14.6420246 14.0541281,14.4542667 15.659,14.44 Z" id="Shape"></path>
            <path d="M33.275,9.039 C36.937,10.084 37.996,9.39 39.335,8.51 C40.677371,7.49912246 42.3198886,6.96746083 44,7 C44.275,7 44.534,7.009 44.782,7.024 C44.867,7.029 44.943,7.039 45.025,7.046 C45.183,7.059 45.343,7.072 45.492,7.091 C45.581,7.102 45.663,7.117 45.749,7.13 C45.883,7.151 46.018,7.171 46.149,7.196 C46.227,7.212 46.301,7.23 46.378,7.247 C46.507,7.276 46.637,7.305 46.761,7.338 C46.823,7.354 46.883,7.372 46.944,7.39 C47.081,7.429 47.217,7.469 47.35,7.512 L47.463,7.551 C47.912,7.703 48.344,7.875 48.785,8.06 C49.5937768,6.50303941 50.747439,5.1513427 52.158,4.108 C48.779,2.783 44.498,4.871 44.449,4.895 C44.0642095,5.08667859 43.5999714,5.01098322 43.296,4.707 C42.3609609,3.93063843 41.9060853,2.71776348 42.1,1.518 C42.1862604,1.11443789 42.348475,0.730959915 42.578,0.388 C38.352,1.275 33.913,3.5 30.744,5.08 C28.149,6.376 26.864,7 26,7 C25.362363,7.0285809 24.7582812,6.71337464 24.417,6.174 C24.1942049,5.77847891 24.090053,5.3271539 24.117,4.874 C23.0148556,5.91232838 21.9775669,7.01741148 21.011,8.183 C25.1135451,7.59811531 29.2934856,7.88986589 33.275,9.039 Z" id="Shape"></path>
            <path d="M41.937,18.152 C41.82,18.045 41.697,17.942 41.575,17.838 C41.453,17.734 41.303,17.623 41.167,17.515 L41.159,17.526 C41.1246251,17.5953556 41.0965134,17.6676428 41.075,17.742 C41.064,17.778 41.046,17.814 41.039,17.85 C41.0166108,17.9532819 41.0145728,18.0599382 41.033,18.164 C41.133,18.681 41.833,18.928 42.243,19.03 C42.4963333,19.0926667 42.754,19.1646667 43.016,19.246 C43.007,19.236 43,19.224 42.991,19.214 C42.947,19.164 42.898,19.12 42.854,19.071 C42.564,18.751 42.2583333,18.4446667 41.937,18.152 Z" id="Shape"></path>
            <path d="M55.744,25.326 C55.901678,25.3418792 56.0578393,25.3703025 56.211,25.411 C55.4553346,24.2685349 54.4850499,23.2836466 53.354,22.511 C52.2912556,21.7856953 51.9680535,20.3633448 52.613,19.25 C53.1881645,18.1540888 54.4980187,17.6694212 55.648,18.127 C55.144255,16.9158506 54.3661545,15.8382174 53.375,14.979 C53.254,14.99 53.129,14.996 53,14.996 C51.1219616,15.0275741 49.2770119,15.495573 47.611,16.363 C46.235,16.989 44.937,17.582 43.553,16.891 C43.54,16.884 43.529,16.882 43.516,16.876 C43.829,17.176 44.126,17.483 44.416,17.801 C44.482,17.876 44.543,17.955 44.608,18.03 C44.92,18.392 45.2146667,18.767 45.492,19.155 C45.562,19.255 45.634,19.349 45.702,19.449 C45.971,19.843 46.228,20.249 46.462,20.665 C46.579,20.724 46.687,20.784 46.8,20.844 C46.935,20.914 47.07,20.984 47.2,21.055 C47.348,21.136 47.488,21.215 47.63,21.295 C47.772,21.375 47.885,21.438 48.006,21.508 C48.127,21.578 48.259,21.658 48.383,21.733 C48.507,21.808 48.617,21.872 48.725,21.939 C48.833,22.006 48.941,22.075 49.046,22.139 C49.151,22.203 49.254,22.269 49.346,22.33 L49.593,22.493 L49.861,22.671 L50.027,22.786 C50.104,22.838 50.185,22.893 50.246,22.937 L50.356,23.015 L50.602,23.193 C51.0357528,23.4966536 51.1576337,24.0857788 50.8799729,24.536613 C50.6023121,24.9874472 50.0213599,25.1437099 49.555,24.893 C49.4131741,24.8269296 49.2646533,24.7763051 49.112,24.742 C49.078,24.733 49.045,24.724 49.012,24.717 C48.8283138,24.6775844 48.6422522,24.6501929 48.455,24.635 L48.347,24.628 C48.262,24.622 48.168,24.628 48.079,24.622 C48.113,24.746 48.137,24.879 48.17,25.005 C48.23,25.234 48.284,25.469 48.338,25.705 C48.4313333,26.1136667 48.5143333,26.5316667 48.587,26.959 C48.629,27.204 48.671,27.449 48.706,27.699 C48.772,28.162 48.822,28.638 48.865,29.119 C48.885,29.346 48.912,29.566 48.927,29.796 C48.975,30.513 49.005,31.244 49.005,31.996 C49.005,38.583 45.881,44.18 43.371,48.678 C43.167,49.0426667 42.967,49.402 42.771,49.756 C42.703,49.879 42.639,49.998 42.571,50.12 C42.436,50.366 42.303,50.61 42.171,50.851 C42.099,50.986 42.03,51.119 41.959,51.251 C41.844,51.471 41.731,51.689 41.623,51.904 C41.554,52.041 41.487,52.176 41.423,52.311 C41.323,52.521 41.223,52.728 41.13,52.933 C41.072,53.061 41.013,53.189 40.958,53.315 C40.864,53.531 40.779,53.743 40.697,53.953 C40.655,54.06 40.61,54.169 40.571,54.274 C40.471,54.563 40.371,54.846 40.295,55.123 C40.289,55.145 40.28,55.168 40.274,55.19 C40.2023091,55.4535685 40.1439022,55.7205715 40.099,55.99 L41.715,55.99 C41.8835104,55.7344315 42.0782317,55.4971464 42.296,55.282 C43.4868745,54.1401245 45.3037873,53.959672 46.696,54.845 C46.9578714,54.977363 47.2119534,55.1246038 47.457,55.286 C47.4453009,53.6852833 47.0647835,52.1088051 46.345,50.679 C45.632,48.935 44.825,46.959 46.552,46.095 C47.5790918,45.5080666 48.8268985,45.4551429 49.9,45.953 C50.7708363,46.4244159 51.4806317,47.1457045 51.938,48.024 C51.932602,46.737886 51.6708328,45.4657557 51.168,44.282 C50.513,42.389 49.836,40.431 51.168,38.435 C51.6910034,37.5179592 52.6447425,36.9301152 53.699,36.875 C54.4383976,36.8855756 55.159242,37.1080413 55.776,37.516 C55.3625995,35.5485688 54.6844258,33.6462514 53.76,31.861 C52.722,29.656 51.824,27.752 53.293,26.283 C53.9177489,25.6017008 54.8228919,25.2482851 55.744,25.326 Z" id="Shape"></path>
            <path d="M10.645,44.669 C10.704879,44.7372896 10.7686518,44.8020641 10.836,44.863 C10.85,44.876 10.863,44.886 10.877,44.897 C10.9173526,44.932499 10.962042,44.9627401 11.01,44.987 C11.018,44.987 11.028,44.997 11.035,45 C11.975,45 12.706,44.826 13.493,43.126 L13.505,43.099 C13.561,42.976 13.618,42.846 13.675,42.706 C13.705,42.635 13.734,42.554 13.764,42.478 C13.794,42.402 13.829,42.315 13.864,42.226 C13.926,42.056 13.989,41.8753333 14.053,41.684 C14.6168765,40.2749852 15.3409695,38.9355137 16.211,37.692 C17.163,36.203 18.466,34.164 18.111,33.447 C17.495119,31.9876236 17.3849435,30.3642067 17.798,28.835 C17.9142755,28.2297162 17.9818253,27.6160829 18,27 C18,26 15.4,26 14,26 C13.1497955,25.979729 12.3063394,25.8434706 11.493,25.595 C10.0323324,25.1787688 8.51865998,24.9783159 7,25 C6.78320386,25.0008744 6.56683294,25.0192676 6.353,25.055 C6.303,25.063 6.254,25.072 6.206,25.082 C6.02899554,25.1164767 5.85533695,25.1663324 5.687,25.231 L5.679,25.231 C5.52743991,25.2936126 5.38240795,25.3709853 5.246,25.462 C5.214,25.483 5.183,25.505 5.152,25.527 C5.03499374,25.6094437 4.92556155,25.7021432 4.825,25.804 L4.818,25.81 C4.925,25.795 5.032,25.783 5.142,25.775 C8.798,25.517 13.217,29.801 13.707,30.291 C13.9943421,30.5768042 14.0807691,31.0077776 13.9258429,31.3822738 C13.7709167,31.75677 13.4052765,32.0007267 13,32 C12,32 12,36.516 12,38 C11.8882331,40.1255542 11.2567829,42.1912446 10.161,44.016 L10.168,44.028 C10.236,44.135 10.307,44.237 10.378,44.334 L10.427,44.4 C10.491,44.484 10.554,44.563 10.615,44.634 L10.645,44.669 Z" id="Shape"></path>
            <path d="M40.765,49.251 C40.829,49.133 40.892,49.016 40.958,48.896 C41.174,48.5046667 41.3943333,48.1083333 41.619,47.707 C44.142,43.188 47,38.067 47,32 C47,31.282 46.973,30.588 46.928,29.91 C46.913,29.688 46.885,29.478 46.865,29.261 C46.824,28.813 46.78,28.368 46.719,27.939 C46.683,27.692 46.637,27.455 46.595,27.214 C46.528,26.834 46.458,26.458 46.374,26.095 C46.318,25.851 46.254,25.615 46.191,25.379 C46.139,25.187 46.08,25.004 46.023,24.818 C45.874,24.849 45.723,24.883 45.581,24.918 L45.491,24.94 C45.291,24.994 45.102,25.054 44.917,25.118 C44.858,25.138 44.804,25.161 44.746,25.183 C44.623,25.229 44.502,25.275 44.388,25.325 C44.324,25.353 44.265,25.382 44.204,25.411 C44.104,25.458 44.004,25.506 43.915,25.556 L43.749,25.656 C43.663,25.708 43.584,25.756 43.509,25.814 C43.463,25.846 43.417,25.878 43.375,25.914 C43.3052143,25.9700873 43.2384538,26.0298379 43.175,26.093 C43.146,26.122 43.112,26.151 43.086,26.18 C43.0103414,26.2618485 42.9457868,26.3533008 42.894,26.452 C42.394,27.457 44.075,28.852 44.554,29.173 C44.9913046,29.4664344 45.126091,30.0487373 44.8621991,30.5044786 C44.5983072,30.96022 44.0261853,31.1331955 43.554,30.9 C42.2568719,30.4345936 40.8213579,30.5572621 39.622,31.236 C39.39,31.379 39.001,31.67 39.001,32.005 C39.001,33.112 40.722,34.617 41.556,35.173 C41.8839089,35.3929408 42.0517028,35.7852349 41.9842695,36.1742734 C41.9168362,36.5633119 41.6268021,36.8762491 41.244,36.973 C39.5884022,37.3654963 37.8849948,37.5180553 36.186,37.426 C36.586,37.661 37.019,37.894 37.448,38.108 C37.8227071,38.2942338 38.0418441,38.6940721 37.9972275,39.1101223 C37.9526109,39.5261724 37.6536755,39.8704533 37.248,39.973 C35.1068306,40.4454964 32.8800982,40.3590582 30.782,39.722 C31.082,40.268 31.455,40.875 31.837,41.448 C31.9375773,41.5987464 31.9953006,41.7739901 32.004,41.955 C32.026311,42.4210318 31.7233868,42.8405611 31.274,42.966 C31.1846561,42.989835 31.0924598,43.0012754 31,43 C30.7463171,42.9975588 30.4933412,42.9727967 30.244,42.926 C30.165,42.912 30.088,42.892 30.01,42.874 C29.84,42.835 29.674,42.792 29.51,42.738 C29.427,42.71 29.346,42.682 29.264,42.651 C29.105,42.591 28.951,42.525 28.799,42.451 C28.73,42.419 28.661,42.389 28.593,42.351 C28.407,42.257 28.2293333,42.159 28.06,42.057 C28.041,42.046 28.019,42.036 28,42.024 C27.979,44.88 25.088,47.162 22.029,49.578 C20.0782888,50.9512119 18.3385955,52.6019666 16.865,54.478 C16.6700024,54.7716462 16.6560959,55.1498252 16.829,55.457 C17.0038895,55.7916343 17.3514335,56.0001607 17.729,55.997 L38.067,55.997 C38.067,55.986 38.072,55.974 38.074,55.962 C38.086,55.875 38.108,55.787 38.123,55.7 C38.165,55.446 38.212,55.192 38.275,54.934 C38.308,54.804 38.35,54.672 38.387,54.541 C38.449,54.322 38.514,54.103 38.587,53.881 C38.636,53.737 38.687,53.59 38.746,53.445 C38.827,53.231 38.91,53.016 39,52.8 C39.0666667,52.648 39.1333333,52.4956667 39.2,52.343 C39.2973333,52.1243333 39.3973333,51.9036667 39.5,51.681 C39.573,51.528 39.646,51.375 39.722,51.221 C39.839,50.986 39.961,50.748 40.085,50.509 C40.16,50.365 40.234,50.221 40.311,50.075 C40.462,49.806 40.612,49.529 40.765,49.251 Z" id="Shape"></path>
            <path d="M24,37 C25.536597,36.8516323 26.9865205,37.7359308 27.558,39.17 C27.6109023,39.2061325 27.6604365,39.2469647 27.706,39.292 C28.0181494,39.590796 28.3546462,39.8630708 28.712,40.106 C28.3337875,39.4597836 28.0915058,38.7431467 28,38 C27.9982732,37.6527806 28.1767847,37.3295185 28.4715729,37.1460404 C28.7663611,36.9625623 29.1352255,36.9451339 29.446,37.1 C30.7968031,37.7114287 32.2397625,38.0943029 33.716,38.233 C32,37.005 32,36.289 32,36 C31.9999219,35.6922375 32.1415612,35.4015817 32.384,35.212 C32.6259495,35.0216387 32.9425684,34.9543987 33.241,35.03 C35.0354692,35.4154972 36.8774128,35.5311031 38.706,35.373 C37.7343589,34.5024722 37.1254262,33.2985273 37,32 C37.0458104,30.956002 37.6434499,30.0151674 38.569,29.53 C39.4108015,29.0334291 40.3525694,28.7304374 41.326,28.643 C40.5411159,27.5217199 40.6096798,26.0124939 41.493,24.967 C41.544,24.905 41.608,24.851 41.664,24.792 C41.7721995,24.6716529 41.8873994,24.5577888 42.009,24.451 C42.086,24.387 42.172,24.329 42.254,24.268 C42.376,24.177 42.497,24.086 42.63,24.003 C42.724,23.944 42.824,23.891 42.923,23.836 C43.056,23.762 43.188,23.689 43.328,23.622 C43.435,23.571 43.544,23.522 43.655,23.477 C43.794,23.417 43.934,23.359 44.077,23.306 C44.193,23.263 44.308,23.224 44.425,23.185 C44.568,23.138 44.71,23.093 44.855,23.052 C44.974,23.018 45.091,22.987 45.209,22.957 C45.352,22.921 45.492,22.889 45.633,22.857 C45.751,22.832 45.867,22.808 45.984,22.787 L46.135,22.757 C45.862,22.61 45.581,22.457 45.288,22.317 C44.1619095,21.7439727 42.9783121,21.2917855 41.757,20.968 C40.4536243,20.7922174 39.3896862,19.8384786 39.073,18.562 C39.0437479,18.4183372 39.026356,18.2725128 39.021,18.126 C39.021,18.075 39.026,18.026 39.027,17.973 C39.027,17.873 39.027,17.784 39.039,17.689 L39.039,17.673 L38.961,17.693 C38.745,17.7523333 38.5156667,17.8116667 38.273,17.871 L38.049,17.926 C37.821,17.981 37.581,18.036 37.332,18.091 C37.247,18.11 37.165,18.129 37.077,18.147 C36.7736667,18.2136667 36.4573333,18.277 36.128,18.337 L36.028,18.357 C35.6626667,18.4236667 35.282,18.4873333 34.886,18.548 L34.579,18.591 C34.279,18.634 33.984,18.675 33.674,18.712 C33.527,18.73 33.374,18.746 33.227,18.762 C32.944,18.793 32.656,18.822 32.362,18.847 C32.199,18.861 32.037,18.875 31.872,18.887 C31.561,18.911 31.243,18.929 30.921,18.945 C30.768,18.953 30.621,18.962 30.464,18.968 C29.987,18.986 29.501,18.998 29.002,18.998 C26.5600614,18.9611539 24.1425897,18.5051931 21.855,17.65 C20.916,17.35 19.993,17.05 19.001,16.826 L18.86,16.8 C18.593,16.742 18.316,16.694 18.035,16.648 C17.93,16.631 17.826,16.614 17.718,16.598 C17.458,16.562 17.187,16.535 16.912,16.512 C16.775,16.5 16.636,16.49 16.494,16.482 C16.225,16.467 15.946,16.459 15.659,16.459 C15.497,16.459 15.33,16.459 15.159,16.468 C14.869,16.477 14.572,16.491 14.259,16.516 C14.076,16.53 13.883,16.554 13.693,16.575 C13.373,16.611 13.049,16.649 12.705,16.703 C12.581,16.723 12.445,16.753 12.317,16.775 C12.23,16.793 12.14,16.809 12.042,16.826 C11.764,16.878 11.504,16.915 11.211,16.98 C11.1415873,16.9942132 11.070847,17.0009184 11,17 L4,17 C3.15519995,16.9084765 2.39484339,16.4460331 1.925,15.738 C1.19514846,17.7409929 0.880432631,19.871534 1,22 C1.11557935,23.3792938 1.62940462,24.695298 2.479,25.788 C2.487,25.77 2.498,25.753 2.506,25.736 C2.57266667,25.588 2.64766667,25.4413333 2.731,25.296 C2.739,25.282 2.745,25.267 2.754,25.253 C2.84808825,25.0950575 2.95091469,24.9424871 3.062,24.796 C3.096,24.751 3.133,24.709 3.169,24.665 C3.255,24.56 3.346,24.458 3.443,24.359 C3.488,24.312 3.534,24.267 3.582,24.222 C3.69319513,24.1196249 3.80968882,24.0231588 3.931,23.933 C3.971,23.902 4.008,23.87 4.05,23.841 C4.22099548,23.7211947 4.40084643,23.6145544 4.588,23.522 C4.631,23.5 4.679,23.484 4.723,23.463 C4.8826993,23.3900875 5.04627843,23.3259911 5.213,23.271 C5.285,23.248 5.359,23.227 5.434,23.207 C5.598,23.162 5.77,23.125 5.948,23.094 C6.026,23.081 6.101,23.066 6.181,23.056 C6.45247369,23.0193651 6.72606634,23.0006579 7,23 C8.68976669,22.9778471 10.3738581,23.2001472 12,23.66 C12.6483551,23.862709 13.321082,23.9770726 14,24 C16.1,24 20,24 20,27 C19.9817092,27.7269761 19.9027684,28.4511568 19.764,29.165 C19.4362557,30.2783045 19.4822689,31.4683267 19.895,32.553 C20.76,34.284 19.369,36.462 17.895,38.769 C17.1183185,39.876453 16.4657324,41.0659304 15.949,42.316 C14.985,45.208 13.821,47 11,47 C10.8704758,46.999869 10.7413615,46.9854484 10.615,46.957 C10.8285246,47.5488977 11.3721501,47.958285 12,48 C13.491,48 15.457,45.3 17.191,42.912 C19.4,39.872 21.491,37 24,37 Z" id="Shape"></path>
        </g>
    </g>
</svg>